<?xml version="1.0" standalone="no"?>
<!DOCTYPE svg PUBLIC "-//W3C//DTD SVG 20010904//EN"
 "http://www.w3.org/TR/2001/REC-SVG-20010904/DTD/svg10.dtd">
<svg version="1.0" xmlns="http://www.w3.org/2000/svg"
 width="724.000000pt" height="724.000000pt" viewBox="0 0 724.000000 724.000000"
 preserveAspectRatio="xMidYMid meet">
<metadata>
Created by potrace 1.11, written by Peter Selinger 2001-2013
</metadata>
<g transform="translate(0.000000,724.000000) scale(0.100000,-0.100000)"
fill="#000000" stroke="none">
<path d="M2837 5394 c-1 -1 -65 -5 -142 -8 -77 -4 -156 -8 -175 -10 -19 -2
-69 -7 -110 -11 -41 -3 -88 -8 -105 -10 -16 -2 -52 -7 -80 -10 -68 -8 -104
-14 -210 -31 -49 -8 -101 -16 -115 -19 -30 -4 -91 -16 -105 -19 -5 -2 -28 -6
-50 -11 -22 -4 -94 -21 -160 -37 -66 -16 -127 -30 -135 -32 -171 -42 -644
-201 -727 -245 -10 -5 -43 -19 -73 -31 -30 -13 -77 -33 -105 -46 -86 -39 -438
-196 -477 -212 -21 -8 -38 -18 -38 -21 0 -4 28 -7 63 -7 34 0 125 -4 202 -8
77 -4 181 -9 230 -11 113 -5 281 -15 320 -19 17 -2 66 -6 110 -10 44 -4 87 -9
95 -11 8 -2 35 -6 60 -9 66 -7 115 -15 205 -32 125 -24 126 -24 191 -39 34 -8
73 -16 85 -19 264 -56 668 -198 957 -337 427 -206 791 -460 1097 -764 118
-118 156 -162 348 -400 284 -353 357 -437 496 -576 155 -154 243 -226 379
-312 184 -116 400 -194 617 -224 83 -11 405 -8 466 6 30 6 69 14 85 17 102 18
243 67 369 130 387 192 668 548 760 962 34 153 46 333 31 452 -3 19 -8 60 -11
90 -9 77 -60 266 -96 358 -126 317 -353 581 -669 777 -278 171 -592 293 -1094
424 -100 27 -246 61 -319 76 -10 2 -26 6 -35 9 -9 3 -33 8 -52 11 -19 3 -84
17 -145 30 -60 13 -123 27 -140 29 -16 3 -79 15 -140 26 -110 20 -325 54 -420
65 -27 4 -60 8 -73 10 -13 2 -53 7 -90 10 -37 4 -77 8 -90 10 -12 2 -57 7
-100 10 -42 3 -95 8 -117 10 -128 13 -757 28 -768 19z"/>
</g>
</svg>
